<svg xmlns="http://www.w3.org/2000/svg" viewBox="0 0 650.05 570.38"><g id="eee6d81f-e974-46ef-9d09-4bfb487bd75b" data-name="Layer 2"><g id="b9a4e35d-0d0b-4992-89ac-d5660d39081f" data-name="Layer 1"><path d="M310,338.43c-3.15,20.19,69.74,89.89,146,139.08,60.77,39.17,123.7,62.3,147.75,52.89,10.37-4.06,14.72-18.74,9.94-30.68-13.26-33-137.29-44.65-246.26-139.73,45.3,25.6,113.62,52.25,164.07,70.64,55.05,20.06,103.67,37.87,114.18,63.77a57,57,0,0,1,4.13,23.12c-1.21,46.6-53.32,70.69-129.07,35.45S268.18,377.26,310,338.43Z" style="fill:#e5034e;fill-rule:evenodd"/><path d="M310,355.29l0-16.86s-58.61,54.87-163.22,97c0,0,0,76,59.77,93,0,0,88.4-25.71,162.27-97.09l-20.19-19.13s-36.27,47.3-137.89,88.87c0,0-27.49-5.47-34.67-53.6C176.05,447.45,305.77,384,310,355.29Z" style="fill:#e5034e;fill-rule:evenodd"/><path d="M38.5,13c11.32-9.32,36,2.13,66.63,28.2,59.39,50.46,137.78,145.62,175.92,213.58,19.71,35.11,26.22,61.49,14.89,70.83s-36-2.13-66.64-28.19C171.38,240.81,97.89,151.47,53.38,83.8,33.68,48.7,27.16,22.31,38.5,13ZM93.33,55.12c-23.51-20-39.78-30.9-43.24-28S54.25,48,69.34,74.86c17.19,30.62,44.6,69.93,78.15,110.67s66.88,75.18,93.62,97.9c23.5,20,39.77,30.9,43.23,28.05s-4.16-20.9-19.25-47.78C230.29,193.83,153.7,100.65,93.33,55.12Z" style="fill:#e5034e;fill-rule:evenodd"/><path d="M38.5,13C60.92-5.5,95.77-3.57,134,14.47,216.6,45.05,296.3,141.74,312.8,231.59c10.37,40.94,5.57,75.51-16.86,94s-57.28,16.54-95.49-1.49C112.74,282.68,45.44,200.9,21.63,107,11.26,66,16.06,31.45,38.5,13Zm87.68,18C94.43,16,66.55,13.51,50.09,27.07S30.75,68.46,39.38,102.52c9.2,36.29,31.41,78.81,64.47,119h0c33.07,40.14,70.54,70.1,104.4,86.09,31.76,15,59.63,17.48,76.09,3.92s19.34-41.39,10.71-75.45c-9.19-36.29-31.41-78.81-64.47-118.95h0C197.52,76.94,160,47,126.18,31Z" style="fill:#e5034e;fill-rule:evenodd"/><path d="M187.59,512.76c-.11,0-38.39,10.19-70.48,30.9C99.44,555.07,84.49,565.13,68,568.89c-19,4.33-40.36-.59-55.34-17.63C-4,532.39-5.68,497.12,16.37,480.9c30.42-22.39,58,1.21,104.48-4.65-22.18,10.8-45.8,12.94-69.9,9.84a21,21,0,0,0-15.38,4,29.82,29.82,0,0,0-8,9.21,36.8,36.8,0,0,0-4.44,12.75c-1.4,9.14.57,18.83,7.09,26.25,8.33,9.48,17.91,11.4,28.35,9,12.91-2.93,27.85-11.74,43.65-21.94,34.86-22.5,76.16-34.43,76.27-34.47Z" style="fill:#e5034e;fill-rule:evenodd"/><path d="M355.55,289.43s70.29-69.68,114.52-134.52c0,0,47.27,2.42,73.32,44.84,0,0-65.87,103.77-144.13,176.71l23.85,17.2.31-3.19s117.86-129.37,146.94-190c0,0-30.29-66.35-113.92-68.77C456.44,131.73,427.36,201.72,355.55,289.43Z" style="fill:#e5034e;fill-rule:evenodd"/><path d="M539.36,189.79c.07-.1,24.28-35.86,57.31-63.13,18.19-15,34-27.63,43.81-43.21,11.26-17.9,13.72-40.21,1.24-58.87-13.81-20.65-50-30.2-74.8-11.9-34.18,25.24-19.34,57.87-42,102.72,30.82-31.58,30.4-71,44.79-81.6,16.48-12.17,42.41-9.37,52.25,5.35,6.94,10.39,5.54,20.32-.65,30.16-7.65,12.17-22.16,25.06-38.42,38.48A362.15,362.15,0,0,0,523.47,171Z" style="fill:#e5034e;fill-rule:evenodd"/></g></g></svg>